# xmcd
#
# Track frame offsets:
#	150
#	21179
#	37935
#	57188
#	74674
#	104095
#	123943
#	142651
#	163296
#	176102
#	195846
#
# Disc length: 2915 seconds
#
# Revision: 1
# Processed by: cddbd v1.5.2PL0 Copyright (c) Steve Scherf et al.
# Submitted via: audiograbber 1.83.01
#
DISCID=970b610b
DTITLE=Dudley Taft - Deep Deep Blue
DYEAR=2013
DGENRE=Blues
TTITLE0=Meet Me In The Morning 
TTITLE1=The Waiting
TTITLE2=God Forbid
TTITLE3=Sally Can't Dance
TTITLE4=Deep Deep Blue
TTITLE5=Feeling Good Now
TTITLE6=Whishing Well
TTITLE7=Satisfy You
TTITLE8=Bandit Queen
TTITLE9=Palace Of The Kings
TTITLE10=Shanks Akimbo
EXTD=
EXTT0=
EXTT1=
EXTT2=
EXTT3=
EXTT4=
EXTT5=
EXTT6=
EXTT7=
EXTT8=
EXTT9=
EXTT10=
PLAYORDER=
